<svg width="1280" height="720" viewBox="0 0 1280 720" fill="none" xmlns="http://www.w3.org/2000/svg">
  <rect width="1280" height="720" fill="#070A0F"/>
  <circle cx="160" cy="70" r="320" fill="#45C7FF" opacity=".08"/>
  <circle cx="1080" cy="145" r="270" fill="#2DD47F" opacity=".06"/>
  <g opacity=".12" stroke="#CBD5E1">
    <path d="M0 90H1280M0 180H1280M0 270H1280M0 360H1280M0 450H1280M0 540H1280M0 630H1280"/>
    <path d="M90 0V720M180 0V720M270 0V720M360 0V720M450 0V720M540 0V720M630 0V720M720 0V720M810 0V720M900 0V720M990 0V720M1080 0V720M1170 0V720"/>
  </g>
  <rect x="34" y="28" width="1212" height="64" rx="10" fill="#0D121A" stroke="#253044"/>
  <rect x="56" y="42" width="40" height="40" rx="8" fill="#102B20" stroke="#2DD47F" stroke-opacity=".45"/>
  <text x="68" y="67" fill="#2DD47F" font-family="Segoe UI, Arial" font-size="14" font-weight="800">EPI</text>
  <text x="112" y="58" fill="#F8FAFC" font-family="Segoe UI, Arial" font-size="18" font-weight="800">EPI Detect</text>
  <text x="112" y="77" fill="#94A3B8" font-family="Segoe UI, Arial" font-size="12">Visão computacional para segurança operacional.</text>
  <rect x="1015" y="43" width="190" height="34" rx="17" fill="#0F172A" stroke="#263246"/>
  <circle cx="1034" cy="60" r="5" fill="#2DD47F"/>
  <text x="1048" y="65" fill="#CBD5E1" font-family="Segoe UI, Arial" font-size="13" font-weight="700">Monitoramento ativo.</text>
  <text x="34" y="140" fill="#45C7FF" font-family="Segoe UI, Arial" font-size="13" font-weight="800">OPERAÇÃO EM TEMPO REAL.</text>
  <text x="34" y="176" fill="#F8FAFC" font-family="Segoe UI, Arial" font-size="34" font-weight="850">Câmera monitorada.</text>
  <text x="34" y="204" fill="#94A3B8" font-family="Segoe UI, Arial" font-size="16">Análise contínua de pessoas, coletes de segurança e conformidade da área.</text>
  <rect x="34" y="232" width="795" height="430" rx="10" fill="#020617" stroke="#2C374B"/>
  <rect x="58" y="256" width="170" height="36" rx="18" fill="#08111F" stroke="#283345"/>
  <circle cx="77" cy="274" r="5" fill="#2DD47F"/>
  <text x="92" y="279" fill="#CBD5E1" font-family="Segoe UI, Arial" font-size="13" font-weight="800">Ao vivo.</text>
  <rect x="239" y="256" width="104" height="36" rx="18" fill="#08111F" stroke="#283345"/>
  <text x="260" y="279" fill="#CBD5E1" font-family="Segoe UI, Arial" font-size="13" font-weight="800">IA: YOLO.</text>
  <rect x="356" y="256" width="118" height="36" rx="18" fill="#08111F" stroke="#45C7FF" stroke-opacity=".38"/>
  <text x="383" y="279" fill="#F8FAFC" font-family="Segoe UI, Arial" font-size="13" font-weight="800">Tela cheia.</text>
  <rect x="196" y="337" width="470" height="248" rx="12" fill="#101827" stroke="#243247"/>
  <path d="M430 392C486 392 532 438 532 494C532 550 486 596 430 596C374 596 328 550 328 494C328 438 374 392 430 392Z" fill="#111827" stroke="#45C7FF" stroke-width="3"/>
  <path d="M378 466H482L505 558H355L378 466Z" fill="#2DD47F" opacity=".82"/>
  <circle cx="430" cy="359" r="38" fill="#1E293B" stroke="#CBD5E1" stroke-width="3"/>
  <rect x="863" y="122" width="383" height="540" rx="10" fill="#0D121A" stroke="#253044"/>
  <text x="887" y="157" fill="#F8FAFC" font-family="Segoe UI, Arial" font-size="17" font-weight="800">Painel de controle.</text>
  <text x="887" y="178" fill="#94A3B8" font-family="Segoe UI, Arial" font-size="13">Indicadores, desempenho e eventos.</text>
  <rect x="887" y="207" width="104" height="38" rx="8" fill="#123044" stroke="#45C7FF" stroke-opacity=".45"/>
  <text x="908" y="231" fill="#F8FAFC" font-family="Segoe UI, Arial" font-size="13" font-weight="800">Visão geral</text>
  <rect x="1000" y="207" width="104" height="38" rx="8" fill="#0B111A" stroke="#253044"/>
  <text x="1015" y="231" fill="#94A3B8" font-family="Segoe UI, Arial" font-size="13" font-weight="800">Desempenho</text>
  <rect x="1113" y="207" width="104" height="38" rx="8" fill="#0B111A" stroke="#253044"/>
  <text x="1139" y="231" fill="#94A3B8" font-family="Segoe UI, Arial" font-size="13" font-weight="800">Eventos</text>
  <rect x="887" y="271" width="329" height="78" rx="8" fill="#121925" stroke="#263246"/>
  <rect x="906" y="286" width="48" height="48" rx="8" fill="#102B20"/>
  <text x="919" y="315" fill="#2DD47F" font-family="Segoe UI, Arial" font-size="14" font-weight="900">OK</text>
  <text x="970" y="303" fill="#94A3B8" font-family="Segoe UI, Arial" font-size="12" font-weight="800">COM EPI.</text>
  <text x="970" y="332" fill="#2DD47F" font-family="Segoe UI, Arial" font-size="34" font-weight="900">4</text>
  <rect x="887" y="361" width="329" height="78" rx="8" fill="#121925" stroke="#263246"/>
  <rect x="906" y="376" width="48" height="48" rx="8" fill="#331A22"/>
  <text x="926" y="406" fill="#FF5D64" font-family="Segoe UI, Arial" font-size="18" font-weight="900">!</text>
  <text x="970" y="393" fill="#94A3B8" font-family="Segoe UI, Arial" font-size="12" font-weight="800">SEM EPI.</text>
  <text x="970" y="422" fill="#FF5D64" font-family="Segoe UI, Arial" font-size="34" font-weight="900">1</text>
  <rect x="887" y="451" width="329" height="112" rx="8" fill="#121925" stroke="#263246"/>
  <text x="907" y="483" fill="#F8FAFC" font-family="Segoe UI, Arial" font-size="15" font-weight="800">Taxa de conformidade.</text>
  <rect x="907" y="506" width="289" height="10" rx="5" fill="#263246"/>
  <rect x="907" y="506" width="231" height="10" rx="5" fill="#2DD47F"/>
  <text x="907" y="547" fill="#2DD47F" font-family="Segoe UI, Arial" font-size="34" font-weight="900">80%</text>
  <rect x="887" y="586" width="329" height="48" rx="8" fill="#08111F" stroke="#263246"/>
  <circle cx="911" cy="610" r="5" fill="#FF5D64"/>
  <text x="928" y="615" fill="#CBD5E1" font-family="Segoe UI, Arial" font-size="13">10:48:12 - 1 pessoa sem EPI detectada.</text>
</svg>
